0
SECTION
2
HEADER
9
$INSUNITS
70
4
9
$ACADVER
1
AC1014
9
$HANDSEED
5
FFFF
0
ENDSEC
0
SECTION
2
TABLES
0
TABLE
2
VPORT
5
8
100
AcDbSymbolTable
0
ENDTAB
0
TABLE
2
LTYPE
5
5
100
AcDbSymbolTable
0
LTYPE
5
14
100
AcDbSymbolTableRecord
100
AcDbLinetypeTableRecord
2
BYBLOCK
70
0
0
LTYPE
5
15
100
AcDbSymbolTableRecord
100
AcDbLinetypeTableRecord
2
BYLAYER
70
0
0
ENDTAB
0
TABLE
2
LAYER
5
2
100
AcDbSymbolTable
70
2
0
LAYER
5
50
100
AcDbSymbolTableRecord
100
AcDbLayerTableRecord
2
0
70
0
6
CONTINUOUS
0
ENDTAB
0
TABLE
2
STYLE
5
3
100
AcDbSymbolTable
70
1
0
STYLE
5
11
100
AcDbSymbolTableRecord
100
AcDbTextStyleTableRecord
2
STANDARD
70
0
0
ENDTAB
0
TABLE
2
VIEW
5
6
100
AcDbSymbolTable
70
0
0
ENDTAB
0
TABLE
2
UCS
5
7
100
AcDbSymbolTable
70
0
0
ENDTAB
0
TABLE
2
APPID
5
9
100
AcDbSymbolTable
70
2
0
APPID
5
12
100
AcDbSymbolTableRecord
100
AcDbRegAppTableRecord
2
ACAD
70
0
0
ENDTAB
0
TABLE
2
DIMSTYLE
5
A
100
AcDbSymbolTable
70
1
0
ENDTAB
0
TABLE
2
BLOCK_RECORD
5
1
100
AcDbSymbolTable
70
1
0
BLOCK_RECORD
5
1F
100
AcDbSymbolTableRecord
100
AcDbBlockTableRecord
2
*MODEL_SPACE
0
BLOCK_RECORD
5
1B
100
AcDbSymbolTableRecord
100
AcDbBlockTableRecord
2
*PAPER_SPACE
0
ENDTAB
0
ENDSEC
0
SECTION
2
BLOCKS
0
BLOCK
5
20
100
AcDbEntity
100
AcDbBlockBegin
2
*MODEL_SPACE
0
ENDBLK
5
21
100
AcDbEntity
100
AcDbBlockEnd
0
BLOCK
5
1C
100
AcDbEntity
100
AcDbBlockBegin
2
*PAPER_SPACE
0
ENDBLK
5
1D
100
AcDbEntity
100
AcDbBlockEnd
0
ENDSEC
0
SECTION
2
ENTITIES
0
CIRCLE
5
100
100
AcDbEntity
8
0
100
AcDbCircle
10
73.412315924406627
20
-458.41448123179936
30
0
40
1.5500000000000214
210
6.3108872417680944e-30
220
-1.9721522630525278e-31
230
1
0
CIRCLE
5
101
100
AcDbEntity
8
0
100
AcDbCircle
10
105.89218448440582
20
-410.55712146509086
30
0
40
2.5499999999999878
210
0
220
0
230
1
0
CIRCLE
5
102
100
AcDbEntity
8
0
100
AcDbCircle
10
59.175402205763547
20
-439.63299357241368
30
0
40
11
210
6.3108872417680944e-30
220
1.972152263052533e-31
230
1
0
LWPOLYLINE
5
103
100
AcDbEntity
8
0
100
AcDbPolyline
90
14
70
1
43
0.0
10
-0.843270000032321
20
-463.42990773916415
10
2.1567299999676863
20
-466.42990773659983
10
92.856729999968536
20
-466.42990773659994
10
95.856729999968366
20
-463.42990773916472
10
95.856729999969033
20
-426.42990773916415
10
115.85625952058679
20
-426.42990773916426
10
115.85625952058679
20
-400.56512791929686
10
113.85625952058676
20
-398.5651279192968
10
102.10678538820623
20
-398.5651279192968
10
79.355003330755025
20
-421.31690997674951
10
47.639734642327234
20
-421.31690997674951
10
31.859793447328599
20
-437.09685117174718
10
2.1567210955775096
20
-437.18548610300343
10
-0.84327000003236474
20
-440.19444262594629
0
CIRCLE
5
104
100
AcDbEntity
8
0
100
AcDbCircle
10
7.1385857135641828
20
-452.62397874173615
30
0
40
2.5499999999999998
210
6.3108872417680944e-30
220
5.13266846217665e-55
230
1
0
CIRCLE
5
105
100
AcDbEntity
8
0
100
AcDbCircle
10
20.138585712199198
20
-452.62381351411938
30
0
40
2.5499999999999821
210
5.4738221102292239e-48
220
1.9721522630525295e-31
230
1
0
CIRCLE
5
106
100
AcDbEntity
8
0
100
AcDbCircle
10
73.412315912698034
20
-429.62549237075569
30
0
40
1.5500000000000003
210
1.2621774483536189e-29
220
3.5032461608050503e-46
230
1
0
CIRCLE
5
107
100
AcDbEntity
8
0
100
AcDbCircle
10
59.175402205764833
20
-461.55330378918643
30
0
40
1.5499999999999925
210
6.3108872417680944e-30
220
1.972152263052533e-31
230
1
0
CIRCLE
5
108
100
AcDbEntity
8
0
100
AcDbCircle
10
37.255091988982073
20
-439.63299357240362
30
0
40
1.5499999999999925
210
6.3108872417680944e-30
220
1.972152263052533e-31
230
1
0
CIRCLE
5
109
100
AcDbEntity
8
0
100
AcDbCircle
10
81.095712422547678
20
-439.63299357240351
30
0
40
1.5500000000000003
210
1.2621774483536189e-29
220
7.0064923319286394e-46
230
1
0
LWPOLYLINE
5
110
100
AcDbEntity
8
0
100
AcDbPolyline
90
14
70
1
43
0.0
10
95.856729999968366
20
-463.42990773916472
10
95.856729999969033
20
-426.42990773916415
10
115.85625952058679
20
-426.42990773916426
10
115.85625952058679
20
-400.56512791929686
10
113.85625952058676
20
-398.5651279192968
10
102.10678538820623
20
-398.5651279192968
10
79.355003330755025
20
-421.31690997674951
10
47.639734642327234
20
-421.31690997674951
10
31.859793447328599
20
-437.09685117174718
10
2.1567210955775096
20
-437.18548610300343
10
-0.84327000003236452
20
-440.19444262594629
10
-0.843270000032321
20
-463.42990773916415
10
2.1567299999676863
20
-466.42990773659983
10
92.856729999968536
20
-466.42990773659994
0
CIRCLE
5
111
100
AcDbEntity
8
0
100
AcDbCircle
10
73.412315924406627
20
-458.41448123179936
30
0
40
1.5500000000000203
210
6.3108872417681e-30
220
-1.9721522630525278e-31
230
1
0
CIRCLE
5
112
100
AcDbEntity
8
0
100
AcDbCircle
10
59.175402205764833
20
-461.55330378918643
30
0
40
1.5499999999999936
210
6.3108872417680909e-30
220
1.972152263052533e-31
230
1
0
CIRCLE
5
113
100
AcDbEntity
8
0
100
AcDbCircle
10
81.095712422547678
20
-439.63299357240351
30
0
40
1.5499999999999936
210
1.2621774483536245e-29
220
7.0064923319286394e-46
230
1
0
CIRCLE
5
114
100
AcDbEntity
8
0
100
AcDbCircle
10
73.412315912698034
20
-429.62549237075569
30
0
40
1.5500000000000025
210
1.2621774483536171e-29
220
3.5032461608050503e-46
230
1
0
CIRCLE
5
115
100
AcDbEntity
8
0
100
AcDbCircle
10
59.175402205763547
20
-439.63299357241368
30
0
40
10.999999999999996
210
6.3108872417680972e-30
220
1.972152263052533e-31
230
1
0
CIRCLE
5
116
100
AcDbEntity
8
0
100
AcDbCircle
10
37.255091988982073
20
-439.63299357240362
30
0
40
1.5499999999999936
210
6.3108872417680909e-30
220
1.972152263052533e-31
230
1
0
CIRCLE
5
117
100
AcDbEntity
8
0
100
AcDbCircle
10
20.138585712199198
20
-452.62381351411938
30
0
40
2.5499999999999812
210
5.4738221102292263e-48
220
1.9721522630525295e-31
230
1
0
CIRCLE
5
118
100
AcDbEntity
8
0
100
AcDbCircle
10
7.1385857135641828
20
-452.62397874173615
30
0
40
2.5499999999999998
210
6.3108872417680944e-30
220
5.13266846217665e-55
230
1
0
CIRCLE
5
119
100
AcDbEntity
8
0
100
AcDbCircle
10
105.89218448440582
20
-410.55712146509086
30
0
40
2.5499999999999901
210
0
220
0
230
1
0
ENDSEC
0
SECTION
2
OBJECTS
0
DICTIONARY
5
C
100
AcDbDictionary
3
ACAD_GROUP
350
D
3
ACAD_MLINESTYLE
350
17
0
DICTIONARY
5
D
100
AcDbDictionary
0
DICTIONARY
5
1A
330
C
100
AcDbDictionary
0
DICTIONARY
5
17
100
AcDbDictionary
0
ENDSEC
0
EOF
